<svg xmlns="http://www.w3.org/2000/svg" viewBox="0 0 310.84 95.83"><defs><style>.cls-1{fill:#000003;}.cls-2{fill:#ffe100;}.cls-3{fill:#1a1a18;}</style></defs><g id="Layer_2" data-name="Layer 2"><g id="Layer_1-2" data-name="Layer 1"><path class="cls-1" d="M86.79,34v39.9H70.13v9.9H96.69V34Z"/><path class="cls-1" d="M40.12,95.83A40.12,40.12,0,1,1,80.25,55.71,40.17,40.17,0,0,1,40.12,95.83Zm0-70.16a30,30,0,1,0,30.05,30A30.07,30.07,0,0,0,40.12,25.67Z"/><path class="cls-1" d="M77.45,11.09a8.43,8.43,0,1,1-6,2.47,8.45,8.45,0,0,1,6-2.47"/><path class="cls-1" d="M11.57,0V26.56h9.9V9.9h39.9V0Z"/><circle class="cls-2" cx="40.12" cy="55.71" r="15.73"/><path class="cls-1" d="M40.12,76.48A20.77,20.77,0,1,1,60.89,55.71,20.8,20.8,0,0,1,40.12,76.48Zm0-31.46A10.69,10.69,0,1,0,50.81,55.71,10.71,10.71,0,0,0,40.12,45Z"/><path class="cls-3" d="M138.51,42.12a8.85,8.85,0,0,0,3.93-3.28,9.14,9.14,0,0,0,1.38-5,9.11,9.11,0,0,0-1.38-5,9,9,0,0,0-3.93-3.28,14.42,14.42,0,0,0-6-1.16H121.25v26h6.21v-7.1h5.06A14.72,14.72,0,0,0,138.51,42.12Zm-11-12.65h4.73a6.17,6.17,0,0,1,4,1.13,4,4,0,0,1,1.35,3.23A3.92,3.92,0,0,1,136.19,37a6.15,6.15,0,0,1-4,1.13h-4.73Z"/><polygon class="cls-3" points="154 39.8 165.44 39.8 165.44 50.35 171.65 50.35 171.65 24.36 165.44 24.36 165.44 34.51 154 34.51 154 24.36 147.8 24.36 147.8 50.35 154 50.35 154 39.8"/><path class="cls-3" d="M182.81,49.05a16.06,16.06,0,0,0,14.54,0,13.24,13.24,0,0,0,0-23.38,16,16,0,0,0-14.54,0,12.94,12.94,0,0,0-5.09,4.8,13.8,13.8,0,0,0,0,13.77A13,13,0,0,0,182.81,49.05ZM186,30.28a8.52,8.52,0,0,1,8.12,0A7.43,7.43,0,0,1,197,33.15a9,9,0,0,1,0,8.41,7.53,7.53,0,0,1-2.83,2.88,8.52,8.52,0,0,1-8.12,0,7.46,7.46,0,0,1-2.83-2.88,9,9,0,0,1,0-8.41A7.37,7.37,0,0,1,186,30.28Z"/><polygon class="cls-3" points="213.49 50.35 219.7 50.35 219.7 29.47 227.93 29.47 227.93 24.36 205.26 24.36 205.26 29.47 213.49 29.47 213.49 50.35"/><path class="cls-3" d="M250.37,25.67a16,16,0,0,0-14.55,0,12.94,12.94,0,0,0-5.09,4.8,13.87,13.87,0,0,0,0,13.77,13,13,0,0,0,5.09,4.81,16.08,16.08,0,0,0,14.55,0,13.25,13.25,0,0,0,0-23.38Zm-3.21,18.77a8.5,8.5,0,0,1-8.11,0,7.48,7.48,0,0,1-2.84-2.88,9.1,9.1,0,0,1,0-8.41,7.39,7.39,0,0,1,2.84-2.87,8.5,8.5,0,0,1,8.11,0A7.46,7.46,0,0,1,250,33.15a9.1,9.1,0,0,1,0,8.41A7.55,7.55,0,0,1,247.16,44.44Z"/><polygon class="cls-3" points="150.55 57.37 145.47 57.37 136.05 73.24 126.53 57.42 126.49 57.37 121.37 57.37 121.37 83.35 127.21 83.35 127.21 68.56 134.51 80.57 134.55 80.63 137.37 80.63 144.75 68.24 144.79 83.22 144.79 83.35 150.62 83.35 150.55 57.49 150.55 57.37"/><path class="cls-3" d="M176.33,58.67a16,16,0,0,0-14.55,0,13,13,0,0,0-5.08,4.8,13.8,13.8,0,0,0,0,13.77,13.07,13.07,0,0,0,5.08,4.81,16.08,16.08,0,0,0,14.55,0,13.25,13.25,0,0,0,0-23.38Zm-3.21,18.77a8.5,8.5,0,0,1-8.11,0,7.48,7.48,0,0,1-2.84-2.88,9.1,9.1,0,0,1,0-8.41A7.39,7.39,0,0,1,165,63.28a8.5,8.5,0,0,1,8.11,0A7.39,7.39,0,0,1,176,66.15a9.1,9.1,0,0,1,0,8.41A7.55,7.55,0,0,1,173.12,77.44Z"/><polygon class="cls-3" points="205.22 72.77 192.65 57.41 192.62 57.37 187.5 57.37 187.5 83.35 193.64 83.35 193.64 67.95 206.25 83.3 206.28 83.35 211.36 83.35 211.36 57.37 205.22 57.37 205.22 72.77"/><path class="cls-3" d="M232.19,69.28a44.39,44.39,0,0,0-4.83-1.4,21.45,21.45,0,0,1-4.18-1.26,2,2,0,0,1-1.31-1.85,2.32,2.32,0,0,1,1.14-2,6.63,6.63,0,0,1,3.63-.79,14.33,14.33,0,0,1,7.07,2l.12.07,1.93-4.75-.09-.06a14.28,14.28,0,0,0-4.15-1.7,19.7,19.7,0,0,0-4.85-.6,15.18,15.18,0,0,0-6,1.08,8.32,8.32,0,0,0-3.72,2.93,7.39,7.39,0,0,0-1.23,4.13,6.21,6.21,0,0,0,1.37,4.2,8.06,8.06,0,0,0,3.27,2.28,40.85,40.85,0,0,0,4.83,1.4c1.27.3,2.29.57,3,.81a5.37,5.37,0,0,1,1.8,1,1.78,1.78,0,0,1,.67,1.43,2.15,2.15,0,0,1-1.15,1.9,7.26,7.26,0,0,1-3.68.73,14.53,14.53,0,0,1-4.52-.73,13.54,13.54,0,0,1-3.9-1.93l-.13-.09-2.08,4.63,0,.09.08.06A14.24,14.24,0,0,0,219.85,83a21.47,21.47,0,0,0,5.94.83,15.14,15.14,0,0,0,6-1.08,8.35,8.35,0,0,0,3.75-2.93,7.15,7.15,0,0,0,1.25-4.09,6.09,6.09,0,0,0-1.37-4.17A8.19,8.19,0,0,0,232.19,69.28Z"/><polygon class="cls-3" points="237.39 62.47 245.63 62.47 245.63 83.35 251.83 83.35 251.83 62.47 260.07 62.47 260.07 57.37 237.39 57.37 237.39 62.47"/><polygon class="cls-3" points="269.18 72.61 281.13 72.61 281.13 67.73 269.18 67.73 269.18 62.39 282.71 62.39 282.71 57.37 263.02 57.37 263.02 83.35 283.19 83.35 283.19 78.32 269.18 78.32 269.18 72.61"/><path class="cls-3" d="M305,75a8.51,8.51,0,0,0,5.23-8.18,9.11,9.11,0,0,0-1.38-5,9,9,0,0,0-3.93-3.28,14.42,14.42,0,0,0-6-1.16H287.68v26h6.21V76.18h5.29l5,7.17h6.7ZM293.89,62.47h4.73a6.17,6.17,0,0,1,4,1.13,4.52,4.52,0,0,1,0,6.44,6.11,6.11,0,0,1-4,1.15h-4.73Z"/></g></g></svg>